<?xml version="1.0" encoding="UTF-8"?>
<svg id="Layer_1" data-name="Layer 1" xmlns="http://www.w3.org/2000/svg" viewBox="0 0 321.74 103.82">
  <path d="M313.96,78.3v-1.18l.05-.47h-.02s-.19-.05-.34-.14c-.14-.08-.28-.19-.33-.25-.31-.32-.67-.87-.99-1.77-.31-.89-.53-2.09-.57-3.36-.01-.4-.02-.81-.02-1.21,0-.63.03-1.27.06-1.91.82-3.61,1.26-7.4,1.26-11.28,0-5.61-.9-11-2.58-15.98-2.52-7.46-6.76-14.05-12.53-18.97-2.89-2.46-6.18-4.48-9.79-5.89-3.6-1.42-7.54-2.2-11.58-2.2-5.4,0-10.58,1.4-15.08,3.81-3.07,1.63-5.82,3.72-8.27,6.12-.55-.58-1.11-1.13-1.69-1.66-3.02-2.72-6.49-4.76-10.16-6.15-3.68-1.38-7.58-2.12-11.57-2.12-4.39,0-8.9.91-13.14,2.95-2.05.98-3.9,2.21-5.56,3.58-1.89-1.49-4.08-2.78-6.5-3.76-3.94-1.61-8.42-2.41-13.33-2.41-.92,0-1.86.03-2.82.09l-.38.02-.37.05c-3.31.43-6.78,1.23-10.28,2.61-.19.07-.38.16-.57.24.41-1.23.63-2.54.63-3.87,0-1.69-.35-3.36-.99-4.85-.95-2.25-2.51-4.13-4.49-5.47-1.97-1.34-4.43-2.13-6.97-2.13-1.68,0-3.35.35-4.84.99-2.25.95-4.13,2.51-5.47,4.49-.02.03-.04.06-.06.09-.95-1.68-2.26-3.1-3.85-4.18-1.97-1.34-4.42-2.13-6.96-2.13-1.69,0-3.35.35-4.85.98-2.25.96-4.12,2.52-5.46,4.5-1.35,1.97-2.14,4.43-2.14,6.97,0,1.68.35,3.35.99,4.84.35.84.79,1.62,1.3,2.34h-.01c-1.04-1.11-2.12-2.19-3.28-3.18-2.89-2.45-6.17-4.47-9.78-5.89-3.61-1.41-7.54-2.19-11.59-2.19-5.39-.01-10.57,1.4-15.08,3.8-3.39,1.8-6.42,4.15-9.05,6.88-3.94,4.1-7,9.04-9.11,14.53-2.1,5.48-3.24,11.51-3.24,17.82,0,5.61.9,11,2.58,15.98.24.71.51,1.4.78,2.1.13.35.22.79.22,1.33,0,.77-.21,1.69-.58,2.44-.38.76-.87,1.32-1.31,1.62-.28.2-.64.39-1.1.53-.46.13-1,.22-1.55.22-.63,0-1.26-.11-1.79-.29-.53-.18-.94-.43-1.24-.67-.39-.33-.74-.72-1.09-1.25-.53-.8-1.04-1.97-1.39-3.45-.35-1.48-.55-3.24-.54-5.06,0-.44.01-.88.03-1.33.13-2.85.63-6.12,1.19-9.83.54-3.7,1.15-7.85,1.2-12.48v-.36c0-2.41-.2-4.88-.63-7.37-.65-3.74-1.84-7.55-3.87-11.2-1.01-1.82-2.25-3.6-3.74-5.25-1.48-1.65-3.23-3.18-5.21-4.46-2.32-1.51-4.81-2.58-7.31-3.26-2.5-.69-5.02-.99-7.49-.99-5.46,0-10.67,1.44-15.32,4.02-4.23,2.36-7.68,5.46-10.5,8.78-2.82,3.34-5.02,6.91-6.81,10.47C2.38,41.03.01,51.42,0,61.82c0,2.13.1,4.26.31,6.38.37,3.97,1.29,7.67,2.5,11.06,1.82,5.1,4.26,9.51,6.69,13.52s4.86,7.63,6.89,11.04l18.9-11.26c-1.63-2.73-3.27-5.27-4.79-7.67-2.3-3.61-4.3-6.92-5.73-10-1.43-3.1-2.29-5.9-2.56-8.77-.14-1.42-.21-2.86-.21-4.3,0-7.04,1.64-14.12,4.75-20.31,1.16-2.32,2.51-4.43,3.94-6.12s2.92-2.95,4.44-3.79c1.37-.78,3.16-1.25,4.59-1.23.65,0,1.22.08,1.69.21.47.13.82.29,1.12.49.4.25.76.58,1.15,1.08.58.75,1.19,1.95,1.62,3.51.43,1.55.67,3.41.67,5.24v.18c-.02,2.72-.43,5.85-.96,9.41-.53,3.57-1.19,7.56-1.41,12.04-.03.78-.05,1.57-.05,2.37,0,4.38.56,9.02,2.16,13.66.81,2.32,1.89,4.64,3.34,6.86,1.44,2.21,3.25,4.33,5.45,6.15,2.5,2.08,5.3,3.59,8.19,4.58,2.9.98,5.9,1.47,8.91,1.47,2.65,0,5.32-.38,7.93-1.17,2.6-.79,5.15-2,7.49-3.67,1.57-1.12,2.97-2.4,4.2-3.78,1.95,1.28,4.03,2.38,6.24,3.24,3.61,1.41,7.54,2.2,11.58,2.19,5.4,0,10.58-1.4,15.09-3.8,2.71-1.44,5.18-3.25,7.41-5.31,1.66,1.55,3.48,2.98,5.46,4.24,3.03,1.93,6.2,3.25,9.27,4.05,3.08.81,6.05,1.13,8.82,1.13,3.14,0,6-.4,8.56-1.04,1.28-.32,2.48-.7,3.63-1.14,1.04-.4,2.02-.86,3.01-1.42h0c.08-.03.16-.08.24-.12.02-.02.05-.03.08-.05,3.4-1.88,6.26-4.45,8.41-7.31,1.68-2.2,2.95-4.56,3.93-6.92,1.46-3.56,2.27-7.15,2.76-10.67.49-3.52.64-6.98.64-10.31,0-5.23-.38-10.19-.66-14.35-.04-.68-.07-1.37-.07-2.03,0-.81.05-1.57.11-2.19.55-.21,1.22-.42,1.91-.6.83-.22,1.68-.39,2.42-.5.42-.02.84-.04,1.21-.04,1.52,0,2.69.15,3.57.34,1.55.35,2.22.78,2.68,1.13.34.28.58.56.83.94.36.56.69,1.4.88,2.3.19.9.25,1.83.25,2.36,0,.22,0,.36,0,.43l-.05.42v.13c-.03.28-.05.55-.07.84-.09,1.31-.16,2.79-.21,4.45-.16,4.96-.21,11.54-.21,17.86,0,10.25.13,19.76.13,19.78l22-.05.35-41.67c.28-2.18,1.01-4.38,1.93-5.93.47-.8.98-1.44,1.46-1.91.49-.47.94-.79,1.41-1.01.99-.48,2.21-.77,3.59-.77,1.66,0,3.49.44,5,1.24.76.39,1.44.87,2.01,1.38.56.51,1.02,1.05,1.37,1.62.59.93,1.06,2.08,1.4,3.45.33,1.37.51,2.95.51,4.63,0,.5-.02,1.01-.05,1.51-.05.93-.1,2.2-.1,3.75,0,1.46.04,3.18.18,5.07.16,5.02,1.03,9.86,2.54,14.36.69,2.03,1.51,3.98,2.44,5.86,1.23,2.6,2.75,5.19,4.69,7.68,1.81,2.32,3.98,4.53,6.52,6.47,2.05,1.57,4.36,2.94,6.86,4.07.6.28,1.2.54,1.82.78h.01c3.6,1.42,7.53,2.2,11.57,2.2,5.39.01,10.58-1.4,15.08-3.81,2.2-1.16,4.22-2.58,6.11-4.16,2.05,2.05,4.39,3.68,6.99,4.85,2.79,1.25,5.88,2.01,9.2,2.01,2.53,0,5.2-.46,7.78-1.52l-7.78-18.83ZM120.81,63.45c-1.29,2.59-2.93,4.68-4.64,6.13-1.18,1-2.38,1.71-3.56,2.17-1.18.46-2.33.68-3.57.68-1.64,0-3.16-.39-4.75-1.22-1.19-.63-2.39-1.53-3.54-2.72-1.6-1.66-3.07-3.9-4.17-6.56-.03-.09-.06-.19-.1-.28h-.01c-.04-.1-.08-.19-.12-.3-1.12-2.92-1.79-6.3-1.79-9.95,0-3.24.53-6.27,1.43-8.96,1.35-4.03,3.57-7.23,5.93-9.22,1.17-1,2.37-1.71,3.55-2.17,1.18-.46,2.34-.68,3.57-.68,1.64,0,3.17.39,4.76,1.23,1.18.63,2.39,1.53,3.53,2.72,1.72,1.78,3.29,4.21,4.41,7.13.03.08.06.16.09.24-.67,3.19-1.1,6.56-1.3,10.13-.09,1.51-.14,3.03-.14,4.54,0,2.36.13,4.72.42,7.09ZM149.38,35.22c1.2-.78,2.6-1.33,4.52-1.62.61-.09,1.24-.13,1.85-.13,1.22,0,2.39.18,3.37.49.98.32,1.76.74,2.36,1.22.47.37.96.98,1.27,1.61.32.64.44,1.25.43,1.61,0,.19-.02.31-.04.4-.06.2-.13.37-.37.66-.33.42-1.11,1.06-2.26,1.54-1.14.49-2.58.78-3.85.77-.2,0-.4,0-.59-.02-1.1-.07-2.26-.27-3.5-.61-1.86-.5-3.91-1.33-6.12-2.42-.08-.04-.17-.09-.26-.13,1.02-1.61,2.05-2.61,3.19-3.37ZM163.29,66.32c-.46,1.74-1.05,2.99-1.6,3.8-.28.4-.55.71-.83.97-.29.26-.59.47-.99.69l-.16.09-.11.06s-.21.1-.47.19c-.41.14-1.02.31-1.72.43s-1.5.19-2.32.19c-1.07,0-2.16-.12-3.21-.4-1.05-.28-2.05-.7-3.05-1.33-1.44-.92-2.43-1.81-3.19-2.68-.57-.65-1.02-1.31-1.41-2.04-.2-.38-.39-.81-.56-1.25.31-1.11.57-2.24.81-3.38.75.25,1.52.49,2.3.71,2.45.67,5.07,1.15,7.82,1.34.69.04,1.38.06,2.06.06,2.46,0,4.9-.3,7.28-.86-.17,1.26-.38,2.41-.65,3.41ZM291.05,57.08c-.47,2.39-.82,4.82-1.04,7.3-.12.44-.24.88-.38,1.31-1.35,4.03-3.57,7.23-5.93,9.21-1.17,1-2.37,1.71-3.55,2.17-1.18.46-2.34.69-3.57.69-1.64-.01-3.16-.39-4.76-1.23-1.18-.63-2.38-1.53-3.53-2.72-1.22-1.26-2.37-2.86-3.33-4.73-.3-.64-.58-1.31-.83-2.01-.86-2.34-1.43-4.93-1.76-7.36-.12-.89-.2-1.74-.26-2.57-.01-.14-.01-.28-.01-.41,0-3.24.52-6.28,1.43-8.97,1.35-4.03,3.57-7.23,5.92-9.21,1.18-1,2.38-1.71,3.56-2.17,1.18-.46,2.33-.69,3.57-.69,1.64.01,3.16.39,4.75,1.23,1.19.63,2.39,1.53,3.54,2.72,1.72,1.78,3.29,4.21,4.41,7.13,1.12,2.92,1.78,6.31,1.78,9.96,0,.12-.01.23-.01.35Z"/>
</svg>